<?xml version="1.0" standalone="no"?>
<!DOCTYPE svg PUBLIC "-//W3C//DTD SVG 20010904//EN"
 "http://www.w3.org/TR/2001/REC-SVG-20010904/DTD/svg10.dtd">
<svg version="1.0" xmlns="http://www.w3.org/2000/svg"
 width="90.000000pt" height="80.000000pt" viewBox="0 0 538.000000 464.000000"
 preserveAspectRatio="xMidYMid meet">

<g transform="translate(0.000000,464.000000) scale(0.100000,-0.100000)"
fill="#000000" stroke="none">
<path d="M4466 3435 c-68 -93 -210 -222 -319 -289 l-95 -58 -7 -68 c-4 -38
-15 -110 -25 -162 -10 -51 -17 -94 -16 -95 1 -2 54 23 117 54 95 47 126 68
184 127 111 112 183 271 205 455 7 51 10 94 8 97 -3 2 -26 -25 -52 -61z"/>
<path d="M3920 3031 c-36 -21 -223 -85 -324 -112 -234 -61 -610 -105 -1006
-116 -246 -6 -468 5 -715 38 -425 56 -616 28 -683 -101 -25 -48 -25 -56 -6
-341 6 -84 3 -108 -20 -200 -40 -153 -84 -239 -167 -319 l-69 -68 0 -180 0
-179 43 -7 c23 -4 69 -15 102 -26 101 -33 187 -50 181 -37 -40 90 -80 200 -97
273 -22 88 -22 91 -4 137 10 26 21 47 25 47 5 0 14 -24 20 -52 22 -92 80 -248
127 -342 25 -50 46 -92 47 -93 4 -5 176 -30 176 -26 0 2 -22 31 -50 64 -112
135 -208 311 -249 458 l-20 73 21 29 c12 16 26 28 31 26 4 -1 19 -36 33 -77
61 -181 193 -387 341 -532 l68 -67 153 -7 c83 -4 152 -4 152 -1 0 3 -35 30
-78 60 -166 116 -286 238 -396 402 -50 74 -156 282 -156 307 0 8 15 21 33 30
l33 16 48 -97 c132 -266 294 -445 566 -626 l125 -83 85 13 c87 14 263 55 258
60 -2 2 -48 20 -103 40 -211 78 -399 189 -542 320 -113 103 -245 270 -302 382
l-21 42 29 16 c44 22 54 19 76 -22 84 -158 297 -377 481 -495 106 -68 293
-149 464 -202 l82 -25 121 62 c123 63 322 186 313 194 -2 3 -59 11 -127 19
-327 38 -620 140 -864 301 -92 61 -257 201 -282 240 -14 21 -13 22 27 33 l41
11 77 -66 c295 -254 680 -400 1142 -434 95 -7 119 -6 139 7 32 19 217 205 259
259 l33 42 -133 -6 c-268 -12 -523 25 -818 119 -130 41 -380 139 -380 149 0 5
36 19 79 33 l80 25 43 -24 c100 -55 411 -144 633 -182 125 -20 509 -25 556 -5
18 7 41 42 86 129 65 128 118 252 109 260 -3 3 -36 -2 -73 -11 -119 -28 -184
-36 -358 -47 -220 -13 -630 1 -594 22 46 25 196 45 434 59 105 6 237 17 295
26 130 18 318 63 334 80 11 10 46 172 60 277 5 38 1 42 -24 28z"/>
<path d="M4360 2834 c-70 -45 -246 -134 -327 -165 l-63 -24 -26 -80 c-15 -44
-53 -136 -85 -204 -33 -68 -57 -126 -55 -129 9 -9 153 40 236 81 152 74 294
237 345 395 24 75 44 162 36 162 -3 0 -31 -16 -61 -36z"/>
<path d="M4095 2204 c-85 -30 -244 -70 -317 -79 -52 -7 -54 -8 -110 -83 -31
-43 -96 -119 -143 -169 l-87 -93 90 0 c237 0 398 75 534 250 72 91 135 200
116 199 -7 0 -44 -12 -83 -25z"/>
<path d="M3520 1680 l-215 -5 -80 -56 c-104 -73 -195 -129 -297 -181 l-83 -42
65 -14 c104 -22 387 -21 485 2 140 32 265 108 395 240 l64 66 -59 -2 c-33 -1
-157 -5 -275 -8z"/>
<path d="M1170 1323 c0 -12 58 -92 94 -127 34 -34 137 -96 159 -96 3 0 -113
180 -127 197 -3 4 -126 30 -126 26z"/>
<path d="M2615 1309 c-62 -20 -190 -51 -260 -64 l-40 -7 60 -31 c315 -160 536
-167 830 -28 l80 38 -50 7 c-158 23 -304 50 -411 76 -67 17 -127 30 -135 29
-8 0 -41 -10 -74 -20z"/>
<path d="M1438 1253 c23 -43 143 -143 214 -177 79 -39 222 -79 263 -74 23 3
15 11 -63 66 -49 34 -115 86 -148 116 -55 50 -64 54 -134 64 -41 6 -90 14
-109 18 -31 6 -33 6 -23 -13z"/>
<path d="M1830 1216 c0 -8 137 -104 192 -135 113 -64 156 -73 353 -78 l180 -4
-125 66 c-69 37 -159 86 -201 111 l-76 44 -161 0 c-89 0 -162 -2 -162 -4z"/>
</g>
</svg>
